<mxfile host="app.diagrams.net" modified="2020-08-29T04:07:27.173Z" agent="5.0 (Windows NT 10.0; Win64; x64) AppleWebKit/537.36 (KHTML, like Gecko) Chrome/81.0.4044.138 Safari/537.36 OPR/68.0.3618.206" etag="6nW7Krw6HLDga88v135Q" version="13.6.5" type="github">
  <diagram id="L6fblbG9DiTulhwC5wjb" name="Page-1">
    <mxGraphModel dx="1381" dy="764" grid="1" gridSize="10" guides="1" tooltips="1" connect="1" arrows="1" fold="1" page="1" pageScale="1" pageWidth="827" pageHeight="1169" math="0" shadow="0">
      <root>
        <mxCell id="0" />
        <mxCell id="1" parent="0" />
        <mxCell id="1rUFXbjuSTHaP4yUmWxL-8" style="edgeStyle=orthogonalEdgeStyle;rounded=0;orthogonalLoop=1;jettySize=auto;html=1;exitX=0.5;exitY=1;exitDx=0;exitDy=0;entryX=0.5;entryY=0;entryDx=0;entryDy=0;" edge="1" parent="1" source="1rUFXbjuSTHaP4yUmWxL-1" target="1rUFXbjuSTHaP4yUmWxL-2">
          <mxGeometry relative="1" as="geometry" />
        </mxCell>
        <mxCell id="1rUFXbjuSTHaP4yUmWxL-1" value="Start" style="ellipse;whiteSpace=wrap;html=1;" vertex="1" parent="1">
          <mxGeometry x="80" y="40" width="120" height="80" as="geometry" />
        </mxCell>
        <mxCell id="1rUFXbjuSTHaP4yUmWxL-9" style="edgeStyle=orthogonalEdgeStyle;rounded=0;orthogonalLoop=1;jettySize=auto;html=1;exitX=0.5;exitY=1;exitDx=0;exitDy=0;entryX=0.5;entryY=0;entryDx=0;entryDy=0;" edge="1" parent="1" source="1rUFXbjuSTHaP4yUmWxL-2" target="1rUFXbjuSTHaP4yUmWxL-4">
          <mxGeometry relative="1" as="geometry" />
        </mxCell>
        <mxCell id="1rUFXbjuSTHaP4yUmWxL-2" value="Base, Altura, AreaRetangulo" style="shape=internalStorage;whiteSpace=wrap;html=1;dx=15;dy=15;rounded=1;arcSize=8;strokeWidth=2;" vertex="1" parent="1">
          <mxGeometry x="45" y="150" width="190" height="90" as="geometry" />
        </mxCell>
        <mxCell id="1rUFXbjuSTHaP4yUmWxL-11" style="edgeStyle=orthogonalEdgeStyle;rounded=0;orthogonalLoop=1;jettySize=auto;html=1;exitX=0.5;exitY=1;exitDx=0;exitDy=0;entryX=0.5;entryY=0;entryDx=0;entryDy=0;entryPerimeter=0;" edge="1" parent="1" source="1rUFXbjuSTHaP4yUmWxL-3" target="1rUFXbjuSTHaP4yUmWxL-6">
          <mxGeometry relative="1" as="geometry" />
        </mxCell>
        <mxCell id="1rUFXbjuSTHaP4yUmWxL-3" value="AreaRetangulo = Base * Altura" style="rounded=1;whiteSpace=wrap;html=1;absoluteArcSize=1;arcSize=14;strokeWidth=2;" vertex="1" parent="1">
          <mxGeometry x="47.5" y="410" width="185" height="90" as="geometry" />
        </mxCell>
        <mxCell id="1rUFXbjuSTHaP4yUmWxL-10" style="edgeStyle=orthogonalEdgeStyle;rounded=0;orthogonalLoop=1;jettySize=auto;html=1;exitX=0.5;exitY=1;exitDx=0;exitDy=0;entryX=0.5;entryY=0;entryDx=0;entryDy=0;" edge="1" parent="1" source="1rUFXbjuSTHaP4yUmWxL-4" target="1rUFXbjuSTHaP4yUmWxL-3">
          <mxGeometry relative="1" as="geometry" />
        </mxCell>
        <mxCell id="1rUFXbjuSTHaP4yUmWxL-4" value="Base, Altura" style="html=1;strokeWidth=2;shape=manualInput;whiteSpace=wrap;rounded=1;size=26;arcSize=11;" vertex="1" parent="1">
          <mxGeometry x="65" y="280" width="150" height="90" as="geometry" />
        </mxCell>
        <mxCell id="1rUFXbjuSTHaP4yUmWxL-6" value="AreaRetangulo" style="strokeWidth=2;html=1;shape=mxgraph.flowchart.document2;whiteSpace=wrap;size=0.25;" vertex="1" parent="1">
          <mxGeometry x="60" y="550" width="160" height="90" as="geometry" />
        </mxCell>
        <mxCell id="1rUFXbjuSTHaP4yUmWxL-7" value="End" style="ellipse;whiteSpace=wrap;html=1;" vertex="1" parent="1">
          <mxGeometry x="80" y="680" width="120" height="80" as="geometry" />
        </mxCell>
        <mxCell id="1rUFXbjuSTHaP4yUmWxL-12" value="" style="endArrow=classic;html=1;entryX=0.5;entryY=0;entryDx=0;entryDy=0;" edge="1" parent="1" source="1rUFXbjuSTHaP4yUmWxL-6" target="1rUFXbjuSTHaP4yUmWxL-7">
          <mxGeometry width="50" height="50" relative="1" as="geometry">
            <mxPoint x="390" y="420" as="sourcePoint" />
            <mxPoint x="440" y="370" as="targetPoint" />
          </mxGeometry>
        </mxCell>
      </root>
    </mxGraphModel>
  </diagram>
</mxfile>
